<?xml version="1.0" encoding="utf-8"?>
<!-- Generator: Adobe Illustrator 15.0.2, SVG Export Plug-In  -->
<!DOCTYPE svg PUBLIC "-//W3C//DTD SVG 1.1//EN" "http://www.w3.org/Graphics/SVG/1.1/DTD/svg11.dtd" [
	<!ENTITY ns_flows "http://ns.adobe.com/Flows/1.0/">
]>
<svg version="1.1"
	 xmlns="http://www.w3.org/2000/svg" xmlns:xlink="http://www.w3.org/1999/xlink" xmlns:a="http://ns.adobe.com/AdobeSVGViewerExtensions/3.0/"
	 x="0px" y="0px" width="500px" height="500px" viewBox="-58.032 -58.032 500 500" enable-background="new -58.032 -58.032 500 500"
	 xml:space="preserve">
<defs>
</defs>
<path fill="#0C4C81" d="M191.968,383.936C86.116,383.936,0,297.819,0,191.968S86.116,0,191.968,0s191.968,86.116,191.968,191.968
	S297.819,383.936,191.968,383.936z M191.968,53.6C115.671,53.6,53.6,115.671,53.6,191.968c0,76.296,62.072,138.368,138.368,138.368
	c76.296,0,138.368-62.072,138.368-138.368C330.336,115.671,268.264,53.6,191.968,53.6z"/>
<path fill="#2F813E" d="M191.968,310.529c-65.38,0-118.572-53.187-118.572-118.562c0-65.378,53.191-118.567,118.572-118.567
	c65.381,0,118.571,53.189,118.571,118.567C310.539,257.343,257.349,310.529,191.968,310.529z M191.968,127.001
	c-35.825,0-64.971,29.144-64.971,64.966c0,35.82,29.146,64.962,64.971,64.962s64.972-29.142,64.972-64.962
	C256.939,156.145,227.793,127.001,191.968,127.001z"/>
<path fill="#7E0610" d="M236.461,191.968c0,24.564-19.929,44.492-44.493,44.492s-44.493-19.928-44.493-44.492
	c0-24.57,19.929-44.493,44.493-44.493S236.461,167.398,236.461,191.968z"/>
</svg>
